<svg version="1.1" viewBox="0.0 0.0 474.4724409448819 474.4724409448819" fill="none" stroke="none" stroke-linecap="square" stroke-miterlimit="10" xmlns:xlink="http://www.w3.org/1999/xlink" xmlns="http://www.w3.org/2000/svg"><clipPath id="p.0"><path d="m0 0l474.47244 0l0 474.47244l-474.47244 0l0 -474.47244z" clip-rule="nonzero"/></clipPath><g clip-path="url(#p.0)"><path fill="#000000" fill-opacity="0.0" d="m0 0l474.47244 0l0 474.47244l-474.47244 0z" fill-rule="evenodd"/><path fill="#000000" fill-opacity="0.0" d="m98.2126 214.49962l0 0c0 -25.68103 20.818588 -46.49962 46.49962 -46.49962l185.99289 0l0 0c12.3324585 0 24.15982 4.899048 32.880188 13.619415c8.720367 8.720383 13.619415 20.54773 13.619415 32.880203l0 189.55196c0 25.68103 -20.818573 46.499603 -46.499603 46.499603l-185.99289 0c-25.68103 0 -46.49962 -20.818573 -46.49962 -46.499603z" fill-rule="evenodd"/><path stroke="#ffffff" stroke-width="24.0" stroke-linejoin="round" stroke-linecap="butt" d="m98.2126 214.49962l0 0c0 -25.68103 20.818588 -46.49962 46.49962 -46.49962l185.99289 0l0 0c12.3324585 0 24.15982 4.899048 32.880188 13.619415c8.720367 8.720383 13.619415 20.54773 13.619415 32.880203l0 189.55196c0 25.68103 -20.818573 46.499603 -46.499603 46.499603l-185.99289 0c-25.68103 0 -46.49962 -20.818573 -46.49962 -46.499603z" fill-rule="evenodd"/><path fill="#000000" fill-opacity="0.0" d="m135.07086 310.25986l0 0c0 -56.15042 45.69516 -101.66931 102.063 -101.66931l0 0c27.068771 0 53.028915 10.711563 72.16942 29.778244c19.140533 19.066696 29.893555 44.92668 29.893555 71.89107l0 0c0 56.15039 -45.69516 101.66928 -102.06297 101.66928l0 0c-56.367844 0 -102.063 -45.51889 -102.063 -101.66928z" fill-rule="evenodd"/><path stroke="#ffffff" stroke-width="24.0" stroke-linejoin="round" stroke-linecap="butt" d="m135.07086 310.25986l0 0c0 -56.15042 45.69516 -101.66931 102.063 -101.66931l0 0c27.068771 0 53.028915 10.711563 72.16942 29.778244c19.140533 19.066696 29.893555 44.92668 29.893555 71.89107l0 0c0 56.15039 -45.69516 101.66928 -102.06297 101.66928l0 0c-56.367844 0 -102.063 -45.51889 -102.063 -101.66928z" fill-rule="evenodd"/><path fill="#000000" fill-opacity="0.0" d="m135.07086 168.7336l0 0c0 -54.04924 19.495956 -103.98328 51.129654 -130.95592c31.633698 -26.972641 70.58809 -26.8766 102.160965 0.25187302c31.572845 27.128471 50.95636 77.15837 50.83481 131.2073l-102.06242 -0.5032501z" fill-rule="evenodd"/><path fill="#000000" fill-opacity="0.0" d="m135.07086 168.7336l0 0c0 -54.04924 19.495956 -103.98328 51.129654 -130.95592c31.633698 -26.972641 70.58809 -26.8766 102.160965 0.25187302c31.572845 27.128471 50.95636 77.15837 50.83481 131.2073" fill-rule="evenodd"/><path stroke="#ffffff" stroke-width="24.0" stroke-linejoin="round" stroke-linecap="butt" d="m135.07086 168.7336l0 0c0 -54.04924 19.495956 -103.98328 51.129654 -130.95592c31.633698 -26.972641 70.58809 -26.8766 102.160965 0.25187302c31.572845 27.128471 50.95636 77.15837 50.83481 131.2073" fill-rule="evenodd"/></g></svg>